<mxfile host="65bd71144e" pages="3">
    <diagram id="C5RBs43oDa-KdzZeNtuy" name="шейкер">
        <mxGraphModel dx="1113" dy="814" grid="0" gridSize="10" guides="1" tooltips="1" connect="1" arrows="1" fold="1" page="1" pageScale="1" pageWidth="827" pageHeight="1169" math="0" shadow="0">
            <root>
                <mxCell id="WIyWlLk6GJQsqaUBKTNV-0"/>
                <mxCell id="WIyWlLk6GJQsqaUBKTNV-1" parent="WIyWlLk6GJQsqaUBKTNV-0"/>
                <mxCell id="FJBb87z16YMADizGVczc-8" style="edgeStyle=orthogonalEdgeStyle;rounded=0;orthogonalLoop=1;jettySize=auto;html=1;exitX=0.5;exitY=1;exitDx=0;exitDy=0;exitPerimeter=0;" parent="WIyWlLk6GJQsqaUBKTNV-1" source="cw5GKaNrx1taj8MvquGk-0" target="cw5GKaNrx1taj8MvquGk-3" edge="1">
                    <mxGeometry relative="1" as="geometry"/>
                </mxCell>
                <mxCell id="p1bAHlazFoZSwkdOtZy0-3" style="edgeStyle=orthogonalEdgeStyle;rounded=0;orthogonalLoop=1;jettySize=auto;html=1;exitX=1;exitY=0.5;exitDx=0;exitDy=0;exitPerimeter=0;entryX=0;entryY=0.5;entryDx=0;entryDy=0;entryPerimeter=0;endArrow=none;endFill=0;dashed=1;" parent="WIyWlLk6GJQsqaUBKTNV-1" source="cw5GKaNrx1taj8MvquGk-0" target="p1bAHlazFoZSwkdOtZy0-0" edge="1">
                    <mxGeometry relative="1" as="geometry"/>
                </mxCell>
                <mxCell id="cw5GKaNrx1taj8MvquGk-0" value="Начало" style="strokeWidth=2;html=1;shape=mxgraph.flowchart.terminator;whiteSpace=wrap;" parent="WIyWlLk6GJQsqaUBKTNV-1" vertex="1">
                    <mxGeometry x="170" y="40" width="140" height="50" as="geometry"/>
                </mxCell>
                <mxCell id="JH4Yfha7tpX3qkW7H3EL-7" style="edgeStyle=orthogonalEdgeStyle;rounded=0;orthogonalLoop=1;jettySize=auto;html=1;exitX=0.5;exitY=1;exitDx=0;exitDy=0;entryX=0.5;entryY=0;entryDx=0;entryDy=0;" parent="WIyWlLk6GJQsqaUBKTNV-1" source="cw5GKaNrx1taj8MvquGk-3" target="JH4Yfha7tpX3qkW7H3EL-1" edge="1">
                    <mxGeometry relative="1" as="geometry"/>
                </mxCell>
                <mxCell id="cw5GKaNrx1taj8MvquGk-3" value="n = длина массива А" style="rounded=0;whiteSpace=wrap;html=1;strokeWidth=2;" parent="WIyWlLk6GJQsqaUBKTNV-1" vertex="1">
                    <mxGeometry x="162" y="106.5" width="156" height="57" as="geometry"/>
                </mxCell>
                <mxCell id="JH4Yfha7tpX3qkW7H3EL-9" style="edgeStyle=orthogonalEdgeStyle;rounded=0;orthogonalLoop=1;jettySize=auto;html=1;exitX=0.5;exitY=1;exitDx=0;exitDy=0;entryX=0.5;entryY=0;entryDx=0;entryDy=0;" parent="WIyWlLk6GJQsqaUBKTNV-1" source="cw5GKaNrx1taj8MvquGk-4" target="JH4Yfha7tpX3qkW7H3EL-3" edge="1">
                    <mxGeometry relative="1" as="geometry"/>
                </mxCell>
                <mxCell id="cw5GKaNrx1taj8MvquGk-4" value="Цикл i от 1 до n" style="shape=loopLimit;whiteSpace=wrap;html=1;strokeWidth=2;" parent="WIyWlLk6GJQsqaUBKTNV-1" vertex="1">
                    <mxGeometry x="163" y="263" width="154" height="44" as="geometry"/>
                </mxCell>
                <mxCell id="FJBb87z16YMADizGVczc-15" style="edgeStyle=orthogonalEdgeStyle;rounded=0;orthogonalLoop=1;jettySize=auto;html=1;exitX=1;exitY=0.5;exitDx=0;exitDy=0;" parent="WIyWlLk6GJQsqaUBKTNV-1" source="cw5GKaNrx1taj8MvquGk-5" target="cw5GKaNrx1taj8MvquGk-6" edge="1">
                    <mxGeometry relative="1" as="geometry"/>
                </mxCell>
                <mxCell id="JH4Yfha7tpX3qkW7H3EL-12" style="edgeStyle=orthogonalEdgeStyle;rounded=0;orthogonalLoop=1;jettySize=auto;html=1;exitX=0;exitY=0.5;exitDx=0;exitDy=0;entryX=0.5;entryY=1;entryDx=0;entryDy=0;" parent="WIyWlLk6GJQsqaUBKTNV-1" source="cw5GKaNrx1taj8MvquGk-5" target="cw5GKaNrx1taj8MvquGk-8" edge="1">
                    <mxGeometry relative="1" as="geometry">
                        <Array as="points">
                            <mxPoint x="70" y="506"/>
                            <mxPoint x="70" y="605"/>
                            <mxPoint x="237" y="605"/>
                        </Array>
                    </mxGeometry>
                </mxCell>
                <mxCell id="cw5GKaNrx1taj8MvquGk-5" value="&lt;font face=&quot;Verdana&quot;&gt;A[i] &amp;gt; A[j] ИЛИ&amp;nbsp;&lt;br&gt;A[i] == A[j] И j &amp;gt; i&lt;/font&gt;" style="rhombus;whiteSpace=wrap;html=1;strokeWidth=2;" parent="WIyWlLk6GJQsqaUBKTNV-1" vertex="1">
                    <mxGeometry x="135" y="470" width="210" height="72" as="geometry"/>
                </mxCell>
                <mxCell id="JH4Yfha7tpX3qkW7H3EL-13" style="edgeStyle=orthogonalEdgeStyle;rounded=0;orthogonalLoop=1;jettySize=auto;html=1;exitX=0.5;exitY=1;exitDx=0;exitDy=0;entryX=0.5;entryY=1;entryDx=0;entryDy=0;" parent="WIyWlLk6GJQsqaUBKTNV-1" source="cw5GKaNrx1taj8MvquGk-6" target="cw5GKaNrx1taj8MvquGk-8" edge="1">
                    <mxGeometry relative="1" as="geometry">
                        <Array as="points">
                            <mxPoint x="418" y="605"/>
                            <mxPoint x="237" y="605"/>
                        </Array>
                    </mxGeometry>
                </mxCell>
                <mxCell id="cw5GKaNrx1taj8MvquGk-6" value="x++" style="rounded=0;whiteSpace=wrap;html=1;strokeWidth=2;" parent="WIyWlLk6GJQsqaUBKTNV-1" vertex="1">
                    <mxGeometry x="338" y="542" width="160" height="50" as="geometry"/>
                </mxCell>
                <mxCell id="cw5GKaNrx1taj8MvquGk-10" value="" style="group" parent="WIyWlLk6GJQsqaUBKTNV-1" vertex="1" connectable="0">
                    <mxGeometry x="159" y="624" width="156" height="45" as="geometry"/>
                </mxCell>
                <mxCell id="cw5GKaNrx1taj8MvquGk-8" value="" style="shape=loopLimit;whiteSpace=wrap;html=1;strokeWidth=2;rotation=-180;" parent="cw5GKaNrx1taj8MvquGk-10" vertex="1">
                    <mxGeometry width="156" height="45" as="geometry"/>
                </mxCell>
                <mxCell id="cw5GKaNrx1taj8MvquGk-9" value="j += 1" style="text;html=1;align=center;verticalAlign=middle;resizable=0;points=[];autosize=1;" parent="cw5GKaNrx1taj8MvquGk-10" vertex="1">
                    <mxGeometry x="60.05882352941176" y="14.5" width="40" height="18" as="geometry"/>
                </mxCell>
                <mxCell id="JH4Yfha7tpX3qkW7H3EL-15" style="edgeStyle=orthogonalEdgeStyle;rounded=0;orthogonalLoop=1;jettySize=auto;html=1;exitX=0.5;exitY=1;exitDx=0;exitDy=0;entryX=0.5;entryY=1;entryDx=0;entryDy=0;" parent="WIyWlLk6GJQsqaUBKTNV-1" source="cw5GKaNrx1taj8MvquGk-11" target="FJBb87z16YMADizGVczc-4" edge="1">
                    <mxGeometry relative="1" as="geometry"/>
                </mxCell>
                <mxCell id="cw5GKaNrx1taj8MvquGk-11" value="B[x] = A[i]" style="rounded=0;whiteSpace=wrap;html=1;strokeWidth=2;" parent="WIyWlLk6GJQsqaUBKTNV-1" vertex="1">
                    <mxGeometry x="161" y="696" width="158" height="47" as="geometry"/>
                </mxCell>
                <mxCell id="cw5GKaNrx1taj8MvquGk-16" value="Конец" style="strokeWidth=2;html=1;shape=mxgraph.flowchart.terminator;whiteSpace=wrap;" parent="WIyWlLk6GJQsqaUBKTNV-1" vertex="1">
                    <mxGeometry x="169" y="843" width="140" height="50" as="geometry"/>
                </mxCell>
                <mxCell id="FJBb87z16YMADizGVczc-3" value="" style="group" parent="WIyWlLk6GJQsqaUBKTNV-1" vertex="1" connectable="0">
                    <mxGeometry x="166" y="769" width="170" height="50" as="geometry"/>
                </mxCell>
                <mxCell id="FJBb87z16YMADizGVczc-4" value="" style="shape=loopLimit;whiteSpace=wrap;html=1;strokeWidth=2;rotation=-180;" parent="FJBb87z16YMADizGVczc-3" vertex="1">
                    <mxGeometry width="150" height="50" as="geometry"/>
                </mxCell>
                <mxCell id="FJBb87z16YMADizGVczc-5" value="i += 1" style="text;html=1;align=center;verticalAlign=middle;resizable=0;points=[];autosize=1;" parent="FJBb87z16YMADizGVczc-3" vertex="1">
                    <mxGeometry x="60" y="15" width="50" height="20" as="geometry"/>
                </mxCell>
                <mxCell id="p1bAHlazFoZSwkdOtZy0-0" value="" style="strokeWidth=2;html=1;shape=mxgraph.flowchart.annotation_1;align=left;pointerEvents=1;" parent="WIyWlLk6GJQsqaUBKTNV-1" vertex="1">
                    <mxGeometry x="382" y="23.5" width="50" height="83" as="geometry"/>
                </mxCell>
                <mxCell id="p1bAHlazFoZSwkdOtZy0-1" value="&lt;div style=&quot;text-align: left&quot;&gt;&lt;span style=&quot;font-size: 14px&quot;&gt;Функция ранговая сортировка&lt;/span&gt;&lt;/div&gt;&lt;font style=&quot;font-size: 14px&quot;&gt;&lt;div style=&quot;text-align: left&quot;&gt;&lt;span&gt;Вход: массив А&amp;nbsp;&lt;/span&gt;&lt;/div&gt;&lt;div style=&quot;text-align: left&quot;&gt;&lt;span&gt;Элементы в произвольном порядке&lt;/span&gt;&lt;/div&gt;&lt;div style=&quot;text-align: left&quot;&gt;&lt;span&gt;Выход: упорядоченный массив&lt;/span&gt;&lt;/div&gt;&lt;/font&gt;" style="text;html=1;align=center;verticalAlign=middle;resizable=0;points=[];autosize=1;" parent="WIyWlLk6GJQsqaUBKTNV-1" vertex="1">
                    <mxGeometry x="382" y="34.5" width="242" height="61" as="geometry"/>
                </mxCell>
                <mxCell id="JH4Yfha7tpX3qkW7H3EL-8" style="edgeStyle=orthogonalEdgeStyle;rounded=0;orthogonalLoop=1;jettySize=auto;html=1;exitX=0.5;exitY=1;exitDx=0;exitDy=0;" parent="WIyWlLk6GJQsqaUBKTNV-1" source="JH4Yfha7tpX3qkW7H3EL-1" target="cw5GKaNrx1taj8MvquGk-4" edge="1">
                    <mxGeometry relative="1" as="geometry"/>
                </mxCell>
                <mxCell id="JH4Yfha7tpX3qkW7H3EL-1" value="Создание нового массива В" style="rounded=0;whiteSpace=wrap;html=1;strokeWidth=2;" parent="WIyWlLk6GJQsqaUBKTNV-1" vertex="1">
                    <mxGeometry x="162" y="188" width="156" height="57" as="geometry"/>
                </mxCell>
                <mxCell id="JH4Yfha7tpX3qkW7H3EL-10" style="edgeStyle=orthogonalEdgeStyle;rounded=0;orthogonalLoop=1;jettySize=auto;html=1;exitX=0.5;exitY=1;exitDx=0;exitDy=0;entryX=0.5;entryY=0;entryDx=0;entryDy=0;" parent="WIyWlLk6GJQsqaUBKTNV-1" source="JH4Yfha7tpX3qkW7H3EL-3" target="JH4Yfha7tpX3qkW7H3EL-4" edge="1">
                    <mxGeometry relative="1" as="geometry"/>
                </mxCell>
                <mxCell id="JH4Yfha7tpX3qkW7H3EL-3" value="&amp;nbsp;Индекс в новом массиве (ранг) x = 0" style="rounded=0;whiteSpace=wrap;html=1;strokeWidth=2;" parent="WIyWlLk6GJQsqaUBKTNV-1" vertex="1">
                    <mxGeometry x="161" y="325" width="156" height="57" as="geometry"/>
                </mxCell>
                <mxCell id="JH4Yfha7tpX3qkW7H3EL-11" style="edgeStyle=orthogonalEdgeStyle;rounded=0;orthogonalLoop=1;jettySize=auto;html=1;exitX=0.5;exitY=1;exitDx=0;exitDy=0;" parent="WIyWlLk6GJQsqaUBKTNV-1" source="JH4Yfha7tpX3qkW7H3EL-4" target="cw5GKaNrx1taj8MvquGk-5" edge="1">
                    <mxGeometry relative="1" as="geometry"/>
                </mxCell>
                <mxCell id="JH4Yfha7tpX3qkW7H3EL-4" value="Цикл j от 1 до n" style="shape=loopLimit;whiteSpace=wrap;html=1;strokeWidth=2;" parent="WIyWlLk6GJQsqaUBKTNV-1" vertex="1">
                    <mxGeometry x="164" y="403" width="154" height="44" as="geometry"/>
                </mxCell>
                <mxCell id="JH4Yfha7tpX3qkW7H3EL-14" style="edgeStyle=orthogonalEdgeStyle;rounded=0;orthogonalLoop=1;jettySize=auto;html=1;exitX=0.5;exitY=0;exitDx=0;exitDy=0;entryX=0.5;entryY=0;entryDx=0;entryDy=0;" parent="WIyWlLk6GJQsqaUBKTNV-1" source="cw5GKaNrx1taj8MvquGk-8" target="cw5GKaNrx1taj8MvquGk-11" edge="1">
                    <mxGeometry relative="1" as="geometry"/>
                </mxCell>
                <mxCell id="JH4Yfha7tpX3qkW7H3EL-16" style="edgeStyle=orthogonalEdgeStyle;rounded=0;orthogonalLoop=1;jettySize=auto;html=1;exitX=0.5;exitY=0;exitDx=0;exitDy=0;entryX=0.5;entryY=0;entryDx=0;entryDy=0;entryPerimeter=0;" parent="WIyWlLk6GJQsqaUBKTNV-1" source="FJBb87z16YMADizGVczc-4" target="cw5GKaNrx1taj8MvquGk-16" edge="1">
                    <mxGeometry relative="1" as="geometry"/>
                </mxCell>
            </root>
        </mxGraphModel>
    </diagram>
    <diagram id="i0ZjRU8CdpSJGLjRWgHx" name="вставками">
        <mxGraphModel dx="1113" dy="814" grid="0" gridSize="10" guides="1" tooltips="1" connect="1" arrows="1" fold="1" page="1" pageScale="1" pageWidth="827" pageHeight="1169" math="0" shadow="0">
            <root>
                <mxCell id="ITRol_YgRyVtCpP8fGkt-0"/>
                <mxCell id="ITRol_YgRyVtCpP8fGkt-1" parent="ITRol_YgRyVtCpP8fGkt-0"/>
                <mxCell id="_CTizQ7tdlsxMsR3B6V_-0" style="edgeStyle=orthogonalEdgeStyle;rounded=0;orthogonalLoop=1;jettySize=auto;html=1;exitX=0.5;exitY=1;exitDx=0;exitDy=0;exitPerimeter=0;" parent="ITRol_YgRyVtCpP8fGkt-1" source="DTski2v6Hd5hSW2omoYL-1" target="DTski2v6Hd5hSW2omoYL-5" edge="1">
                    <mxGeometry relative="1" as="geometry"/>
                </mxCell>
                <mxCell id="DTski2v6Hd5hSW2omoYL-1" value="Начало" style="strokeWidth=2;html=1;shape=mxgraph.flowchart.terminator;whiteSpace=wrap;" parent="ITRol_YgRyVtCpP8fGkt-1" vertex="1">
                    <mxGeometry x="180" y="60" width="120" height="50" as="geometry"/>
                </mxCell>
                <mxCell id="DTski2v6Hd5hSW2omoYL-4" style="edgeStyle=orthogonalEdgeStyle;rounded=0;orthogonalLoop=1;jettySize=auto;html=1;exitX=0.5;exitY=1;exitDx=0;exitDy=0;entryX=0.5;entryY=0;entryDx=0;entryDy=0;" parent="ITRol_YgRyVtCpP8fGkt-1" source="DTski2v6Hd5hSW2omoYL-5" target="DTski2v6Hd5hSW2omoYL-7" edge="1">
                    <mxGeometry relative="1" as="geometry"/>
                </mxCell>
                <mxCell id="DTski2v6Hd5hSW2omoYL-5" value="Цикл i от 1 до n - 1" style="shape=loopLimit;whiteSpace=wrap;html=1;strokeWidth=2;" parent="ITRol_YgRyVtCpP8fGkt-1" vertex="1">
                    <mxGeometry x="155" y="140" width="170" height="50" as="geometry"/>
                </mxCell>
                <mxCell id="DTski2v6Hd5hSW2omoYL-6" style="edgeStyle=orthogonalEdgeStyle;rounded=0;orthogonalLoop=1;jettySize=auto;html=1;exitX=0.5;exitY=1;exitDx=0;exitDy=0;entryX=0.5;entryY=0;entryDx=0;entryDy=0;" parent="ITRol_YgRyVtCpP8fGkt-1" source="DTski2v6Hd5hSW2omoYL-7" target="DTski2v6Hd5hSW2omoYL-9" edge="1">
                    <mxGeometry relative="1" as="geometry"/>
                </mxCell>
                <mxCell id="DTski2v6Hd5hSW2omoYL-7" value="key = массив[i]" style="rounded=0;whiteSpace=wrap;html=1;strokeWidth=2;" parent="ITRol_YgRyVtCpP8fGkt-1" vertex="1">
                    <mxGeometry x="165" y="210" width="150" height="40" as="geometry"/>
                </mxCell>
                <mxCell id="DTski2v6Hd5hSW2omoYL-9" value="j = i&lt;span style=&quot;color: rgba(0 , 0 , 0 , 0) ; font-family: monospace ; font-size: 0px&quot;&gt;%3CmxGraphModel%3E%3Croot%3E%3CmxCell%20id%3D%220%22%2F%3E%3CmxCell%20id%3D%221%22%20parent%3D%220%22%2F%3E%3CmxCell%20id%3D%222%22%20value%3D%22n%26amp%3Bnbsp%3B%20%3D%20%D0%B4%D0%BB%D0%B8%D0%BD%D0%B0%20%D0%BC%D0%B0%D1%81%D1%81%D0%B8%D0%B2%D0%B0%22%20style%3D%22rounded%3D0%3BwhiteSpace%3Dwrap%3Bhtml%3D1%3BstrokeWidth%3D2%3B%22%20vertex%3D%221%22%20parent%3D%221%22%3E%3CmxGeometry%20x%3D%22170%22%20y%3D%22150%22%20width%3D%22120%22%20height%3D%2260%22%20as%3D%22geometry%22%2F%3E%3C%2FmxCell%3E%3C%2Froot%3E%3C%2FmxGraphModel%3E&lt;/span&gt;" style="rounded=0;whiteSpace=wrap;html=1;strokeWidth=2;" parent="ITRol_YgRyVtCpP8fGkt-1" vertex="1">
                    <mxGeometry x="165" y="280" width="150" height="40" as="geometry"/>
                </mxCell>
                <mxCell id="DTski2v6Hd5hSW2omoYL-10" style="edgeStyle=orthogonalEdgeStyle;rounded=0;orthogonalLoop=1;jettySize=auto;html=1;exitX=0.5;exitY=1;exitDx=0;exitDy=0;entryX=0.5;entryY=1;entryDx=0;entryDy=0;" parent="ITRol_YgRyVtCpP8fGkt-1" source="DTski2v6Hd5hSW2omoYL-11" target="DTski2v6Hd5hSW2omoYL-15" edge="1">
                    <mxGeometry relative="1" as="geometry"/>
                </mxCell>
                <mxCell id="DTski2v6Hd5hSW2omoYL-11" value="Обмен местами массив[j] и массив[j - 1]" style="rounded=0;whiteSpace=wrap;html=1;strokeWidth=2;" parent="ITRol_YgRyVtCpP8fGkt-1" vertex="1">
                    <mxGeometry x="190" y="430" width="140" height="60" as="geometry"/>
                </mxCell>
                <mxCell id="DTski2v6Hd5hSW2omoYL-12" style="edgeStyle=orthogonalEdgeStyle;rounded=0;orthogonalLoop=1;jettySize=auto;html=1;exitX=0.5;exitY=1;exitDx=0;exitDy=0;entryX=0.5;entryY=0;entryDx=0;entryDy=0;" parent="ITRol_YgRyVtCpP8fGkt-1" source="DTski2v6Hd5hSW2omoYL-13" target="DTski2v6Hd5hSW2omoYL-11" edge="1">
                    <mxGeometry relative="1" as="geometry"/>
                </mxCell>
                <mxCell id="DTski2v6Hd5hSW2omoYL-13" value="Пока j &amp;gt; 0 и &lt;br&gt;массив[j - 1] &amp;gt; key" style="shape=loopLimit;whiteSpace=wrap;html=1;strokeWidth=2;" parent="ITRol_YgRyVtCpP8fGkt-1" vertex="1">
                    <mxGeometry x="200" y="340" width="120" height="60" as="geometry"/>
                </mxCell>
                <mxCell id="DTski2v6Hd5hSW2omoYL-14" value="" style="group" parent="ITRol_YgRyVtCpP8fGkt-1" vertex="1" connectable="0">
                    <mxGeometry x="200" y="520" width="120" height="60" as="geometry"/>
                </mxCell>
                <mxCell id="DTski2v6Hd5hSW2omoYL-15" value="" style="shape=loopLimit;whiteSpace=wrap;html=1;strokeWidth=2;rotation=-180;" parent="DTski2v6Hd5hSW2omoYL-14" vertex="1">
                    <mxGeometry width="120" height="60" as="geometry"/>
                </mxCell>
                <mxCell id="DTski2v6Hd5hSW2omoYL-16" value="&lt;span&gt;Пока j &amp;gt; 0 и&amp;nbsp;&lt;/span&gt;&lt;br&gt;&lt;span&gt;массив[j - 1] &amp;gt; key&lt;/span&gt;" style="text;html=1;align=center;verticalAlign=middle;resizable=0;points=[];autosize=1;" parent="DTski2v6Hd5hSW2omoYL-14" vertex="1">
                    <mxGeometry x="5" y="15" width="110" height="30" as="geometry"/>
                </mxCell>
                <mxCell id="DTski2v6Hd5hSW2omoYL-17" value="Конец" style="strokeWidth=2;html=1;shape=mxgraph.flowchart.terminator;whiteSpace=wrap;" parent="ITRol_YgRyVtCpP8fGkt-1" vertex="1">
                    <mxGeometry x="210" y="700" width="100" height="50" as="geometry"/>
                </mxCell>
                <mxCell id="DTski2v6Hd5hSW2omoYL-18" value="" style="group" parent="ITRol_YgRyVtCpP8fGkt-1" vertex="1" connectable="0">
                    <mxGeometry x="200" y="610" width="140" height="60" as="geometry"/>
                </mxCell>
                <mxCell id="DTski2v6Hd5hSW2omoYL-19" value="" style="shape=loopLimit;whiteSpace=wrap;html=1;strokeWidth=2;rotation=-180;" parent="DTski2v6Hd5hSW2omoYL-18" vertex="1">
                    <mxGeometry width="120" height="60" as="geometry"/>
                </mxCell>
                <mxCell id="DTski2v6Hd5hSW2omoYL-20" value="&lt;span style=&quot;color: rgb(0, 0, 0); font-family: helvetica; font-size: 12px; font-style: normal; font-weight: 400; letter-spacing: normal; text-align: center; text-indent: 0px; text-transform: none; word-spacing: 0px; background-color: rgb(248, 249, 250); display: inline; float: none;&quot;&gt;Цикл i от 1 до n - 1&lt;/span&gt;" style="text;whiteSpace=wrap;html=1;" parent="DTski2v6Hd5hSW2omoYL-18" vertex="1">
                    <mxGeometry x="10" y="15" width="130" height="30" as="geometry"/>
                </mxCell>
                <mxCell id="DTski2v6Hd5hSW2omoYL-24" style="edgeStyle=orthogonalEdgeStyle;rounded=0;orthogonalLoop=1;jettySize=auto;html=1;exitX=0.5;exitY=0;exitDx=0;exitDy=0;entryX=0.5;entryY=1;entryDx=0;entryDy=0;" parent="ITRol_YgRyVtCpP8fGkt-1" source="DTski2v6Hd5hSW2omoYL-15" target="DTski2v6Hd5hSW2omoYL-19" edge="1">
                    <mxGeometry relative="1" as="geometry"/>
                </mxCell>
                <mxCell id="DTski2v6Hd5hSW2omoYL-25" style="edgeStyle=orthogonalEdgeStyle;rounded=0;orthogonalLoop=1;jettySize=auto;html=1;exitX=0.5;exitY=0;exitDx=0;exitDy=0;entryX=0.5;entryY=0;entryDx=0;entryDy=0;entryPerimeter=0;" parent="ITRol_YgRyVtCpP8fGkt-1" source="DTski2v6Hd5hSW2omoYL-19" target="DTski2v6Hd5hSW2omoYL-17" edge="1">
                    <mxGeometry relative="1" as="geometry"/>
                </mxCell>
                <mxCell id="espTMSem288JypUCBmHW-0" style="edgeStyle=orthogonalEdgeStyle;rounded=0;orthogonalLoop=1;jettySize=auto;html=1;exitX=0.5;exitY=1;exitDx=0;exitDy=0;exitPerimeter=0;entryX=0.5;entryY=0;entryDx=0;entryDy=0;" parent="ITRol_YgRyVtCpP8fGkt-1" source="espTMSem288JypUCBmHW-1" target="espTMSem288JypUCBmHW-3" edge="1">
                    <mxGeometry relative="1" as="geometry"/>
                </mxCell>
                <mxCell id="espTMSem288JypUCBmHW-1" value="Начало" style="strokeWidth=2;html=1;shape=mxgraph.flowchart.terminator;whiteSpace=wrap;" parent="ITRol_YgRyVtCpP8fGkt-1" vertex="1">
                    <mxGeometry x="200" y="1300" width="140" height="50" as="geometry"/>
                </mxCell>
                <mxCell id="espTMSem288JypUCBmHW-24" style="edgeStyle=orthogonalEdgeStyle;rounded=0;orthogonalLoop=1;jettySize=auto;html=1;exitX=0.5;exitY=1;exitDx=0;exitDy=0;entryX=0.5;entryY=0;entryDx=0;entryDy=0;" parent="ITRol_YgRyVtCpP8fGkt-1" source="espTMSem288JypUCBmHW-3" target="espTMSem288JypUCBmHW-7" edge="1">
                    <mxGeometry relative="1" as="geometry"/>
                </mxCell>
                <mxCell id="espTMSem288JypUCBmHW-3" value="Цикл i от 1 до size&amp;nbsp;" style="shape=loopLimit;whiteSpace=wrap;html=1;strokeWidth=2;" parent="ITRol_YgRyVtCpP8fGkt-1" vertex="1">
                    <mxGeometry x="185" y="1380" width="170" height="50" as="geometry"/>
                </mxCell>
                <mxCell id="espTMSem288JypUCBmHW-6" style="edgeStyle=orthogonalEdgeStyle;rounded=0;orthogonalLoop=1;jettySize=auto;html=1;exitX=0.5;exitY=1;exitDx=0;exitDy=0;entryX=0.5;entryY=0;entryDx=0;entryDy=0;" parent="ITRol_YgRyVtCpP8fGkt-1" source="espTMSem288JypUCBmHW-7" target="espTMSem288JypUCBmHW-10" edge="1">
                    <mxGeometry relative="1" as="geometry"/>
                </mxCell>
                <mxCell id="espTMSem288JypUCBmHW-7" value="Цикл j от i до 1&amp;nbsp;" style="shape=loopLimit;whiteSpace=wrap;html=1;strokeWidth=2;" parent="ITRol_YgRyVtCpP8fGkt-1" vertex="1">
                    <mxGeometry x="185" y="1460" width="170" height="50" as="geometry"/>
                </mxCell>
                <mxCell id="espTMSem288JypUCBmHW-9" style="edgeStyle=orthogonalEdgeStyle;rounded=0;orthogonalLoop=1;jettySize=auto;html=1;exitX=1;exitY=0.5;exitDx=0;exitDy=0;" parent="ITRol_YgRyVtCpP8fGkt-1" source="espTMSem288JypUCBmHW-10" target="espTMSem288JypUCBmHW-12" edge="1">
                    <mxGeometry relative="1" as="geometry"/>
                </mxCell>
                <mxCell id="espTMSem288JypUCBmHW-26" style="edgeStyle=orthogonalEdgeStyle;rounded=0;orthogonalLoop=1;jettySize=auto;html=1;exitX=0;exitY=0.5;exitDx=0;exitDy=0;" parent="ITRol_YgRyVtCpP8fGkt-1" source="espTMSem288JypUCBmHW-10" edge="1">
                    <mxGeometry relative="1" as="geometry">
                        <mxPoint x="270" y="1790" as="targetPoint"/>
                        <Array as="points">
                            <mxPoint x="120" y="1570"/>
                            <mxPoint x="120" y="1790"/>
                        </Array>
                    </mxGeometry>
                </mxCell>
                <mxCell id="espTMSem288JypUCBmHW-10" value="arr[j] &amp;lt; arr[j - 1]" style="rhombus;whiteSpace=wrap;html=1;strokeWidth=2;" parent="ITRol_YgRyVtCpP8fGkt-1" vertex="1">
                    <mxGeometry x="180" y="1540" width="180" height="60" as="geometry"/>
                </mxCell>
                <mxCell id="espTMSem288JypUCBmHW-11" style="edgeStyle=orthogonalEdgeStyle;rounded=0;orthogonalLoop=1;jettySize=auto;html=1;exitX=0.5;exitY=1;exitDx=0;exitDy=0;" parent="ITRol_YgRyVtCpP8fGkt-1" source="espTMSem288JypUCBmHW-12" edge="1">
                    <mxGeometry relative="1" as="geometry">
                        <mxPoint x="270" y="1700.0000000000002" as="targetPoint"/>
                    </mxGeometry>
                </mxCell>
                <mxCell id="espTMSem288JypUCBmHW-12" value="Обмен arr[j] и arr[j - 1]" style="rounded=0;whiteSpace=wrap;html=1;strokeWidth=2;" parent="ITRol_YgRyVtCpP8fGkt-1" vertex="1">
                    <mxGeometry x="330" y="1610" width="170" height="50" as="geometry"/>
                </mxCell>
                <mxCell id="espTMSem288JypUCBmHW-13" value="" style="group" parent="ITRol_YgRyVtCpP8fGkt-1" vertex="1" connectable="0">
                    <mxGeometry x="185" y="1700" width="170" height="50" as="geometry"/>
                </mxCell>
                <mxCell id="espTMSem288JypUCBmHW-14" value="" style="shape=loopLimit;whiteSpace=wrap;html=1;strokeWidth=2;rotation=-180;" parent="espTMSem288JypUCBmHW-13" vertex="1">
                    <mxGeometry width="170" height="50" as="geometry"/>
                </mxCell>
                <mxCell id="espTMSem288JypUCBmHW-15" value="j -= 1" style="text;html=1;align=center;verticalAlign=middle;resizable=0;points=[];autosize=1;" parent="espTMSem288JypUCBmHW-13" vertex="1">
                    <mxGeometry x="65" y="15" width="40" height="20" as="geometry"/>
                </mxCell>
                <mxCell id="espTMSem288JypUCBmHW-18" value="" style="group" parent="ITRol_YgRyVtCpP8fGkt-1" vertex="1" connectable="0">
                    <mxGeometry x="185" y="1820" width="170" height="50" as="geometry"/>
                </mxCell>
                <mxCell id="espTMSem288JypUCBmHW-19" value="" style="shape=loopLimit;whiteSpace=wrap;html=1;strokeWidth=2;rotation=-180;" parent="espTMSem288JypUCBmHW-18" vertex="1">
                    <mxGeometry width="170" height="50" as="geometry"/>
                </mxCell>
                <mxCell id="espTMSem288JypUCBmHW-20" value="i += 1" style="text;html=1;align=center;verticalAlign=middle;resizable=0;points=[];autosize=1;" parent="espTMSem288JypUCBmHW-18" vertex="1">
                    <mxGeometry x="60" y="15" width="50" height="20" as="geometry"/>
                </mxCell>
                <mxCell id="espTMSem288JypUCBmHW-21" value="Конец" style="strokeWidth=2;html=1;shape=mxgraph.flowchart.terminator;whiteSpace=wrap;" parent="ITRol_YgRyVtCpP8fGkt-1" vertex="1">
                    <mxGeometry x="200" y="1900" width="140" height="50" as="geometry"/>
                </mxCell>
                <mxCell id="espTMSem288JypUCBmHW-23" style="edgeStyle=orthogonalEdgeStyle;rounded=0;orthogonalLoop=1;jettySize=auto;html=1;exitX=0.5;exitY=0;exitDx=0;exitDy=0;entryX=0.5;entryY=0;entryDx=0;entryDy=0;entryPerimeter=0;" parent="ITRol_YgRyVtCpP8fGkt-1" source="espTMSem288JypUCBmHW-19" target="espTMSem288JypUCBmHW-21" edge="1">
                    <mxGeometry relative="1" as="geometry"/>
                </mxCell>
                <mxCell id="espTMSem288JypUCBmHW-25" style="edgeStyle=orthogonalEdgeStyle;rounded=0;orthogonalLoop=1;jettySize=auto;html=1;exitX=0.5;exitY=0;exitDx=0;exitDy=0;entryX=0.5;entryY=1;entryDx=0;entryDy=0;" parent="ITRol_YgRyVtCpP8fGkt-1" source="espTMSem288JypUCBmHW-14" target="espTMSem288JypUCBmHW-19" edge="1">
                    <mxGeometry relative="1" as="geometry"/>
                </mxCell>
                <mxCell id="espTMSem288JypUCBmHW-27" value="Да" style="text;html=1;align=center;verticalAlign=middle;resizable=0;points=[];autosize=1;" parent="ITRol_YgRyVtCpP8fGkt-1" vertex="1">
                    <mxGeometry x="384" y="1540" width="30" height="20" as="geometry"/>
                </mxCell>
                <mxCell id="ljx-lyR64tmdJZe6OAww-0" style="edgeStyle=orthogonalEdgeStyle;rounded=0;orthogonalLoop=1;jettySize=auto;html=1;exitX=1;exitY=0.5;exitDx=0;exitDy=0;exitPerimeter=0;entryX=0;entryY=0.5;entryDx=0;entryDy=0;entryPerimeter=0;endArrow=none;endFill=0;dashed=1;" parent="ITRol_YgRyVtCpP8fGkt-1" target="ljx-lyR64tmdJZe6OAww-1" edge="1">
                    <mxGeometry relative="1" as="geometry">
                        <mxPoint x="339.9999999999999" y="1325" as="sourcePoint"/>
                    </mxGeometry>
                </mxCell>
                <mxCell id="ljx-lyR64tmdJZe6OAww-1" value="" style="strokeWidth=2;html=1;shape=mxgraph.flowchart.annotation_1;align=left;pointerEvents=1;" parent="ITRol_YgRyVtCpP8fGkt-1" vertex="1">
                    <mxGeometry x="412" y="1283.5" width="50" height="83" as="geometry"/>
                </mxCell>
                <mxCell id="ljx-lyR64tmdJZe6OAww-2" value="&lt;div style=&quot;text-align: left&quot;&gt;&lt;span style=&quot;font-size: 14px&quot;&gt;Функция сортировки вставками&lt;/span&gt;&lt;/div&gt;&lt;font style=&quot;font-size: 14px&quot;&gt;&lt;div style=&quot;text-align: left&quot;&gt;&lt;span&gt;Вход: массив arr размера size&amp;nbsp;&lt;/span&gt;&lt;/div&gt;&lt;div style=&quot;text-align: left&quot;&gt;&lt;span&gt;Элементы в произвольном порядке&lt;/span&gt;&lt;/div&gt;&lt;div style=&quot;text-align: left&quot;&gt;&lt;span&gt;Выход: упорядоченный массив&lt;/span&gt;&lt;/div&gt;&lt;/font&gt;" style="text;html=1;align=center;verticalAlign=middle;resizable=0;points=[];autosize=1;" parent="ITRol_YgRyVtCpP8fGkt-1" vertex="1">
                    <mxGeometry x="431" y="1294.5" width="242" height="61" as="geometry"/>
                </mxCell>
            </root>
        </mxGraphModel>
    </diagram>
    <diagram id="kKNv9t8-YjT-DI9DyJZ6" name="выбором">
        <mxGraphModel dx="1113" dy="814" grid="0" gridSize="10" guides="1" tooltips="1" connect="1" arrows="1" fold="1" page="1" pageScale="1" pageWidth="827" pageHeight="1169" math="0" shadow="0">
            <root>
                <mxCell id="HM6HeohDp8SNmVDvPziv-0"/>
                <mxCell id="HM6HeohDp8SNmVDvPziv-1" parent="HM6HeohDp8SNmVDvPziv-0"/>
                <mxCell id="HJrkmQqaoNoq2AsyLd80-0" style="edgeStyle=orthogonalEdgeStyle;rounded=0;orthogonalLoop=1;jettySize=auto;html=1;exitX=0.5;exitY=1;exitDx=0;exitDy=0;exitPerimeter=0;entryX=0.5;entryY=0;entryDx=0;entryDy=0;" parent="HM6HeohDp8SNmVDvPziv-1" source="HJrkmQqaoNoq2AsyLd80-1" target="HJrkmQqaoNoq2AsyLd80-3" edge="1">
                    <mxGeometry relative="1" as="geometry"/>
                </mxCell>
                <mxCell id="HJrkmQqaoNoq2AsyLd80-1" value="Начало" style="strokeWidth=2;html=1;shape=mxgraph.flowchart.terminator;whiteSpace=wrap;" parent="HM6HeohDp8SNmVDvPziv-1" vertex="1">
                    <mxGeometry x="170" y="50" width="140" height="50" as="geometry"/>
                </mxCell>
                <mxCell id="HJrkmQqaoNoq2AsyLd80-2" style="edgeStyle=orthogonalEdgeStyle;rounded=0;orthogonalLoop=1;jettySize=auto;html=1;exitX=0.5;exitY=1;exitDx=0;exitDy=0;entryX=0.5;entryY=0;entryDx=0;entryDy=0;" parent="HM6HeohDp8SNmVDvPziv-1" source="HJrkmQqaoNoq2AsyLd80-3" target="HJrkmQqaoNoq2AsyLd80-5" edge="1">
                    <mxGeometry relative="1" as="geometry"/>
                </mxCell>
                <mxCell id="HJrkmQqaoNoq2AsyLd80-3" value="Цикл i от 1 до size - 1" style="shape=loopLimit;whiteSpace=wrap;html=1;strokeWidth=2;" parent="HM6HeohDp8SNmVDvPziv-1" vertex="1">
                    <mxGeometry x="155" y="130" width="170" height="50" as="geometry"/>
                </mxCell>
                <mxCell id="HJrkmQqaoNoq2AsyLd80-4" style="edgeStyle=orthogonalEdgeStyle;rounded=0;orthogonalLoop=1;jettySize=auto;html=1;exitX=0.5;exitY=1;exitDx=0;exitDy=0;entryX=0.5;entryY=0;entryDx=0;entryDy=0;" parent="HM6HeohDp8SNmVDvPziv-1" source="HJrkmQqaoNoq2AsyLd80-5" target="HJrkmQqaoNoq2AsyLd80-7" edge="1">
                    <mxGeometry relative="1" as="geometry"/>
                </mxCell>
                <mxCell id="HJrkmQqaoNoq2AsyLd80-5" value="Минимальный элемент &lt;br&gt;(min) = arr[i]&lt;br&gt;Минимальный индекс (min_index) = i" style="rounded=0;whiteSpace=wrap;html=1;strokeWidth=2;" parent="HM6HeohDp8SNmVDvPziv-1" vertex="1">
                    <mxGeometry x="155" y="220" width="170" height="70" as="geometry"/>
                </mxCell>
                <mxCell id="HJrkmQqaoNoq2AsyLd80-6" style="edgeStyle=orthogonalEdgeStyle;rounded=0;orthogonalLoop=1;jettySize=auto;html=1;exitX=0.5;exitY=1;exitDx=0;exitDy=0;entryX=0.5;entryY=0;entryDx=0;entryDy=0;" parent="HM6HeohDp8SNmVDvPziv-1" source="HJrkmQqaoNoq2AsyLd80-7" target="HJrkmQqaoNoq2AsyLd80-10" edge="1">
                    <mxGeometry relative="1" as="geometry"/>
                </mxCell>
                <mxCell id="HJrkmQqaoNoq2AsyLd80-7" value="Цикл j от i + 1 до size&amp;nbsp;" style="shape=loopLimit;whiteSpace=wrap;html=1;strokeWidth=2;" parent="HM6HeohDp8SNmVDvPziv-1" vertex="1">
                    <mxGeometry x="155" y="320" width="170" height="50" as="geometry"/>
                </mxCell>
                <mxCell id="HJrkmQqaoNoq2AsyLd80-8" style="edgeStyle=orthogonalEdgeStyle;rounded=0;orthogonalLoop=1;jettySize=auto;html=1;exitX=0;exitY=0.5;exitDx=0;exitDy=0;entryX=0.5;entryY=1;entryDx=0;entryDy=0;" parent="HM6HeohDp8SNmVDvPziv-1" source="HJrkmQqaoNoq2AsyLd80-10" target="HJrkmQqaoNoq2AsyLd80-14" edge="1">
                    <mxGeometry relative="1" as="geometry">
                        <Array as="points">
                            <mxPoint x="100" y="430"/>
                            <mxPoint x="100" y="540"/>
                            <mxPoint x="240" y="540"/>
                        </Array>
                    </mxGeometry>
                </mxCell>
                <mxCell id="HJrkmQqaoNoq2AsyLd80-9" style="edgeStyle=orthogonalEdgeStyle;rounded=0;orthogonalLoop=1;jettySize=auto;html=1;exitX=1;exitY=0.5;exitDx=0;exitDy=0;" parent="HM6HeohDp8SNmVDvPziv-1" source="HJrkmQqaoNoq2AsyLd80-10" target="HJrkmQqaoNoq2AsyLd80-12" edge="1">
                    <mxGeometry relative="1" as="geometry"/>
                </mxCell>
                <mxCell id="HJrkmQqaoNoq2AsyLd80-10" value="arr[j] &amp;lt; min" style="rhombus;whiteSpace=wrap;html=1;strokeWidth=2;" parent="HM6HeohDp8SNmVDvPziv-1" vertex="1">
                    <mxGeometry x="150" y="400" width="180" height="60" as="geometry"/>
                </mxCell>
                <mxCell id="HJrkmQqaoNoq2AsyLd80-11" style="edgeStyle=orthogonalEdgeStyle;rounded=0;orthogonalLoop=1;jettySize=auto;html=1;exitX=0.5;exitY=1;exitDx=0;exitDy=0;" parent="HM6HeohDp8SNmVDvPziv-1" source="HJrkmQqaoNoq2AsyLd80-12" edge="1">
                    <mxGeometry relative="1" as="geometry">
                        <mxPoint x="240" y="560.0000000000002" as="targetPoint"/>
                    </mxGeometry>
                </mxCell>
                <mxCell id="HJrkmQqaoNoq2AsyLd80-12" value="min_index = j&lt;br&gt;min = arr[j]" style="rounded=0;whiteSpace=wrap;html=1;strokeWidth=2;" parent="HM6HeohDp8SNmVDvPziv-1" vertex="1">
                    <mxGeometry x="300" y="470" width="170" height="50" as="geometry"/>
                </mxCell>
                <mxCell id="HJrkmQqaoNoq2AsyLd80-13" value="" style="group" parent="HM6HeohDp8SNmVDvPziv-1" vertex="1" connectable="0">
                    <mxGeometry x="155" y="560" width="170" height="50" as="geometry"/>
                </mxCell>
                <mxCell id="HJrkmQqaoNoq2AsyLd80-14" value="" style="shape=loopLimit;whiteSpace=wrap;html=1;strokeWidth=2;rotation=-180;" parent="HJrkmQqaoNoq2AsyLd80-13" vertex="1">
                    <mxGeometry width="170" height="50" as="geometry"/>
                </mxCell>
                <mxCell id="HJrkmQqaoNoq2AsyLd80-15" value="j -= 1" style="text;html=1;align=center;verticalAlign=middle;resizable=0;points=[];autosize=1;" parent="HJrkmQqaoNoq2AsyLd80-13" vertex="1">
                    <mxGeometry x="65" y="15" width="40" height="20" as="geometry"/>
                </mxCell>
                <mxCell id="HJrkmQqaoNoq2AsyLd80-16" style="edgeStyle=orthogonalEdgeStyle;rounded=0;orthogonalLoop=1;jettySize=auto;html=1;exitX=0.5;exitY=1;exitDx=0;exitDy=0;entryX=0.5;entryY=1;entryDx=0;entryDy=0;" parent="HM6HeohDp8SNmVDvPziv-1" source="HJrkmQqaoNoq2AsyLd80-17" target="HJrkmQqaoNoq2AsyLd80-19" edge="1">
                    <mxGeometry relative="1" as="geometry"/>
                </mxCell>
                <mxCell id="HJrkmQqaoNoq2AsyLd80-17" value="Поменять местами arr[i] и arr[min_index]" style="rounded=0;whiteSpace=wrap;html=1;strokeWidth=2;" parent="HM6HeohDp8SNmVDvPziv-1" vertex="1">
                    <mxGeometry x="155" y="640" width="170" height="50" as="geometry"/>
                </mxCell>
                <mxCell id="HJrkmQqaoNoq2AsyLd80-18" value="" style="group" parent="HM6HeohDp8SNmVDvPziv-1" vertex="1" connectable="0">
                    <mxGeometry x="155" y="720" width="170" height="50" as="geometry"/>
                </mxCell>
                <mxCell id="HJrkmQqaoNoq2AsyLd80-19" value="" style="shape=loopLimit;whiteSpace=wrap;html=1;strokeWidth=2;rotation=-180;" parent="HJrkmQqaoNoq2AsyLd80-18" vertex="1">
                    <mxGeometry width="170" height="50" as="geometry"/>
                </mxCell>
                <mxCell id="HJrkmQqaoNoq2AsyLd80-20" value="i += 1" style="text;html=1;align=center;verticalAlign=middle;resizable=0;points=[];autosize=1;" parent="HJrkmQqaoNoq2AsyLd80-18" vertex="1">
                    <mxGeometry x="60" y="15" width="50" height="20" as="geometry"/>
                </mxCell>
                <mxCell id="HJrkmQqaoNoq2AsyLd80-21" value="Конец" style="strokeWidth=2;html=1;shape=mxgraph.flowchart.terminator;whiteSpace=wrap;" parent="HM6HeohDp8SNmVDvPziv-1" vertex="1">
                    <mxGeometry x="170" y="800" width="140" height="50" as="geometry"/>
                </mxCell>
                <mxCell id="HJrkmQqaoNoq2AsyLd80-22" style="edgeStyle=orthogonalEdgeStyle;rounded=0;orthogonalLoop=1;jettySize=auto;html=1;exitX=0.5;exitY=0;exitDx=0;exitDy=0;entryX=0.5;entryY=0;entryDx=0;entryDy=0;" parent="HM6HeohDp8SNmVDvPziv-1" source="HJrkmQqaoNoq2AsyLd80-14" target="HJrkmQqaoNoq2AsyLd80-17" edge="1">
                    <mxGeometry relative="1" as="geometry"/>
                </mxCell>
                <mxCell id="HJrkmQqaoNoq2AsyLd80-23" style="edgeStyle=orthogonalEdgeStyle;rounded=0;orthogonalLoop=1;jettySize=auto;html=1;exitX=0.5;exitY=0;exitDx=0;exitDy=0;entryX=0.5;entryY=0;entryDx=0;entryDy=0;entryPerimeter=0;" parent="HM6HeohDp8SNmVDvPziv-1" source="HJrkmQqaoNoq2AsyLd80-19" target="HJrkmQqaoNoq2AsyLd80-21" edge="1">
                    <mxGeometry relative="1" as="geometry"/>
                </mxCell>
                <mxCell id="CMLgLYY78clC7dXmqjkb-0" value="Да" style="text;html=1;align=center;verticalAlign=middle;resizable=0;points=[];autosize=1;" parent="HM6HeohDp8SNmVDvPziv-1" vertex="1">
                    <mxGeometry x="340" y="410" width="30" height="20" as="geometry"/>
                </mxCell>
                <mxCell id="3Qq4ImfVRrdpKH9-f3TP-0" style="edgeStyle=orthogonalEdgeStyle;rounded=0;orthogonalLoop=1;jettySize=auto;html=1;exitX=1;exitY=0.5;exitDx=0;exitDy=0;exitPerimeter=0;entryX=0;entryY=0.5;entryDx=0;entryDy=0;entryPerimeter=0;endArrow=none;endFill=0;dashed=1;" parent="HM6HeohDp8SNmVDvPziv-1" target="3Qq4ImfVRrdpKH9-f3TP-1" edge="1">
                    <mxGeometry relative="1" as="geometry">
                        <mxPoint x="309.9999999999999" y="75" as="sourcePoint"/>
                    </mxGeometry>
                </mxCell>
                <mxCell id="3Qq4ImfVRrdpKH9-f3TP-1" value="" style="strokeWidth=2;html=1;shape=mxgraph.flowchart.annotation_1;align=left;pointerEvents=1;" parent="HM6HeohDp8SNmVDvPziv-1" vertex="1">
                    <mxGeometry x="382" y="33.5" width="50" height="83" as="geometry"/>
                </mxCell>
                <mxCell id="3Qq4ImfVRrdpKH9-f3TP-2" value="&lt;div style=&quot;text-align: left&quot;&gt;&lt;span style=&quot;font-size: 14px&quot;&gt;Функция сортировки выбором&lt;/span&gt;&lt;/div&gt;&lt;font style=&quot;font-size: 14px&quot;&gt;&lt;div style=&quot;text-align: left&quot;&gt;&lt;span&gt;Вход: массив arr размера size&amp;nbsp;&lt;/span&gt;&lt;/div&gt;&lt;div style=&quot;text-align: left&quot;&gt;&lt;span&gt;Элементы в произвольном порядке&lt;/span&gt;&lt;/div&gt;&lt;div style=&quot;text-align: left&quot;&gt;&lt;span&gt;Выход: упорядоченный массив&lt;/span&gt;&lt;/div&gt;&lt;/font&gt;" style="text;html=1;align=center;verticalAlign=middle;resizable=0;points=[];autosize=1;" parent="HM6HeohDp8SNmVDvPziv-1" vertex="1">
                    <mxGeometry x="401" y="44.5" width="242" height="61" as="geometry"/>
                </mxCell>
            </root>
        </mxGraphModel>
    </diagram>
</mxfile>